<svg xmlns="http://www.w3.org/2000/svg" viewBox="0 0 256 256" role="img" aria-labelledby="title desc">
  <title id="title">Logo Nautica Sail</title>
  <desc id="desc">Logo con barca a vela, sole e onde.</desc>
  <defs>
    <linearGradient id="sea" x1="0" y1="0" x2="1" y2="1">
      <stop offset="0" stop-color="#74c9e4"/>
      <stop offset="1" stop-color="#1e7da1"/>
    </linearGradient>
    <linearGradient id="sun" x1="0" y1="0" x2="1" y2="1">
      <stop offset="0" stop-color="#ffe3ad"/>
      <stop offset="1" stop-color="#f39d42"/>
    </linearGradient>
  </defs>
  <rect width="256" height="256" rx="52" fill="url(#sea)"/>
  <circle cx="80" cy="70" r="24" fill="url(#sun)" opacity="0.95"/>
  <g fill="none" stroke="#f3fbff" stroke-width="8" stroke-linecap="round" stroke-linejoin="round">
    <line x1="134" y1="64" x2="134" y2="170"/>
    <path d="M134 74 L182 156 L134 156 Z" fill="#ffd9a0" stroke="#fde8c3"/>
    <path d="M134 86 L94 162 L134 162 Z" fill="#ffedd0" stroke="#fdf2df"/>
    <path d="M72 182 C100 166 126 166 154 182"/>
    <path d="M154 182 C178 194 196 194 214 182"/>
    <path d="M60 202 C89 188 120 188 149 202"/>
    <path d="M149 202 C171 213 190 213 208 202"/>
  </g>
</svg>
